<svg width="20" height="22" viewBox="0 0 20 22" fill="none" xmlns="http://www.w3.org/2000/svg">
<path d="M7.77777 15.1176L7.77777 11.5882" stroke="#949494" stroke-width="2" stroke-linecap="round"/>
<path d="M12.2222 15.1176L12.2222 11.5882" stroke="#949494" stroke-width="2" stroke-linecap="round"/>
<path d="M0 5.70587H20V5.70587C18.7538 5.70587 18.1308 5.70587 17.6667 5.97382C17.3626 6.14936 17.1102 6.40183 16.9346 6.70587C16.6667 7.16997 16.6667 7.79305 16.6667 9.03921V17C16.6667 18.8856 16.6667 19.8284 16.0809 20.4142C15.4951 21 14.5523 21 12.6667 21H7.33333C5.44771 21 4.50491 21 3.91912 20.4142C3.33333 19.8284 3.33333 18.8856 3.33333 17V9.0392C3.33333 7.79305 3.33333 7.16997 3.06538 6.70587C2.88985 6.40183 2.63737 6.14936 2.33333 5.97382C1.86923 5.70587 1.24615 5.70587 0 5.70587V5.70587Z" stroke="#949494" stroke-width="2" stroke-linecap="round"/>
<path d="M7.85351 1.43599C7.98012 1.31091 8.25911 1.20039 8.6472 1.12156C9.0353 1.04273 9.51082 1 10 1C10.4892 1 10.9647 1.04273 11.3528 1.12156C11.7409 1.20039 12.0199 1.31091 12.1465 1.43599" stroke="#949494" stroke-width="2" stroke-linecap="round"/>
</svg>
